<svg width="46" height="46" viewBox="0 0 46 46" fill="none" xmlns="http://www.w3.org/2000/svg">
<g filter="url(#filter0_d_35061_94761)">
<path d="M4 19C4 8.50659 12.5066 0 23 0C33.4934 0 42 8.50659 42 19C42 29.4934 33.4934 38 23 38C12.5066 38 4 29.4934 4 19Z" fill="#3456F3"/>
<path d="M30.3752 11H15.6248C14.1751 11 13 12.212 13 13.7061V21.203C13 21.3421 13.0102 21.4788 13.0303 21.6124C13.0097 21.8121 13 22.014 13 22.2178C13 26.5151 17.4769 30 22.9999 30C28.5229 30 33 26.5151 33 22.2178C33 22.0139 32.9893 21.8121 32.9697 21.6124C32.9893 21.4789 33 21.3421 33 21.203V13.7062C33 12.2116 31.8236 11 30.3752 11Z" fill="white"/>
</g>
<defs>
<filter id="filter0_d_35061_94761" x="0" y="0" width="46" height="46" filterUnits="userSpaceOnUse" color-interpolation-filters="sRGB">
<feFlood flood-opacity="0" result="BackgroundImageFix"/>
<feColorMatrix in="SourceAlpha" type="matrix" values="0 0 0 0 0 0 0 0 0 0 0 0 0 0 0 0 0 0 127 0" result="hardAlpha"/>
<feOffset dy="4"/>
<feGaussianBlur stdDeviation="2"/>
<feComposite in2="hardAlpha" operator="out"/>
<feColorMatrix type="matrix" values="0 0 0 0 0 0 0 0 0 0 0 0 0 0 0 0 0 0 0.25 0"/>
<feBlend mode="normal" in2="BackgroundImageFix" result="effect1_dropShadow_35061_94761"/>
<feBlend mode="normal" in="SourceGraphic" in2="effect1_dropShadow_35061_94761" result="shape"/>
</filter>
</defs>
</svg>
