<svg width="108" height="38" viewBox="0 0 108 38" fill="none" xmlns="http://www.w3.org/2000/svg">
<g filter="url(#filter0_d_1004_57498)">
<path d="M5.97869 20L6.91335 17.3054H10.8906L11.8203 20H13.451L9.78693 9.81818H8.01207L4.34801 20H5.97869ZM7.3608 16.0128L8.86222 11.6676H8.94176L10.4432 16.0128H7.3608ZM14.802 20H16.2885V16.9474H17.253L19.5549 20H21.3993L18.4064 16.0774L21.3645 12.3636H19.525L17.0044 15.5653H16.2885V12.3636H14.802V20ZM22.554 20H24.0405V16.9474H25.005L27.3068 20H29.1513L26.1584 16.0774L29.1165 12.3636H27.277L24.7564 15.5653H24.0405V12.3636H22.554V20ZM32.5282 20.169C33.791 20.169 34.502 19.5277 34.7853 18.956H34.845V20H36.2967V14.929C36.2967 12.7067 34.5467 12.2642 33.3336 12.2642C31.9515 12.2642 30.6788 12.821 30.1816 14.2131L31.5787 14.5312C31.7974 13.9893 32.3542 13.4673 33.3535 13.4673C34.313 13.4673 34.8052 13.9695 34.8052 14.8345V14.8693C34.8052 15.4112 34.2484 15.4013 32.8762 15.5604C31.4295 15.7294 29.948 16.1072 29.948 17.8423C29.948 19.3438 31.0765 20.169 32.5282 20.169ZM32.8514 18.9759C32.0112 18.9759 31.4047 18.598 31.4047 17.8622C31.4047 17.0668 32.1106 16.7834 32.9707 16.669C33.4529 16.6044 34.5964 16.4751 34.8102 16.2614V17.2457C34.8102 18.1506 34.0893 18.9759 32.8514 18.9759ZM38.9428 22.8438C40.1708 22.8438 40.9513 22.2024 41.3888 21.0192L44.5458 12.3786L42.94 12.3636L41.006 18.2898H40.9265L38.9925 12.3636H37.4016L40.1957 20.0994L40.0117 20.6065C39.6339 21.5959 39.1019 21.6854 38.2866 21.4616L37.9286 22.6797C38.1076 22.7642 38.4954 22.8438 38.9428 22.8438ZM47.4032 12.3636H45.9466V20H47.4032V16.8281H50.7093V20H52.161V12.3636H50.7093V15.5405H47.4032V12.3636ZM53.2026 13.6463H55.7033V20H57.155V13.6463H59.6458V12.3636H53.2026V13.6463Z" fill="black"/>
<rect x="78" width="26" height="30" rx="4" fill="#F5F5F5"/>
<path fill-rule="evenodd" clip-rule="evenodd" d="M93.5 12C93.5 13.3807 92.3807 14.5 91 14.5C89.6193 14.5 88.5 13.3807 88.5 12C88.5 10.6193 89.6193 9.5 91 9.5C92.3807 9.5 93.5 10.6193 93.5 12ZM95 12C95 14.2091 93.2091 16 91 16C88.7909 16 87 14.2091 87 12C87 9.79086 88.7909 8 91 8C93.2091 8 95 9.79086 95 12ZM89 17.25C86.9289 17.25 85.25 18.9289 85.25 21V22H86.75V21C86.75 19.7574 87.7574 18.75 89 18.75H93C94.2426 18.75 95.25 19.7574 95.25 21V22H96.75V21C96.75 18.9289 95.0711 17.25 93 17.25H89Z" fill="black"/>
</g>
<defs>
<filter id="filter0_d_1004_57498" x="0" y="0" width="108" height="38" filterUnits="userSpaceOnUse" color-interpolation-filters="sRGB">
<feFlood flood-opacity="0" result="BackgroundImageFix"/>
<feColorMatrix in="SourceAlpha" type="matrix" values="0 0 0 0 0 0 0 0 0 0 0 0 0 0 0 0 0 0 127 0" result="hardAlpha"/>
<feOffset dy="4"/>
<feGaussianBlur stdDeviation="2"/>
<feComposite in2="hardAlpha" operator="out"/>
<feColorMatrix type="matrix" values="0 0 0 0 0 0 0 0 0 0 0 0 0 0 0 0 0 0 0.25 0"/>
<feBlend mode="normal" in2="BackgroundImageFix" result="effect1_dropShadow_1004_57498"/>
<feBlend mode="normal" in="SourceGraphic" in2="effect1_dropShadow_1004_57498" result="shape"/>
</filter>
</defs>
</svg>
