<svg width="80" height="29" viewBox="0 0 80 29" fill="none" xmlns="http://www.w3.org/2000/svg">
<g filter="url(#filter0_d_35061_94872)">
<rect x="4" width="72" height="21" rx="10.5" fill="#F4F4F4"/>
<path d="M20.5415 9H19.6609C19.6088 8.74669 19.5176 8.52415 19.3874 8.33239C19.2596 8.14062 19.1033 7.97964 18.9187 7.84943C18.7364 7.71686 18.534 7.61742 18.3114 7.55114C18.0889 7.48485 17.8569 7.4517 17.6154 7.4517C17.1751 7.4517 16.7762 7.56297 16.4187 7.78551C16.0636 8.00805 15.7807 8.33594 15.57 8.76918C15.3616 9.20241 15.2575 9.7339 15.2575 10.3636C15.2575 10.9934 15.3616 11.5249 15.57 11.9581C15.7807 12.3913 16.0636 12.7192 16.4187 12.9418C16.7762 13.1643 17.1751 13.2756 17.6154 13.2756C17.8569 13.2756 18.0889 13.2424 18.3114 13.1761C18.534 13.1098 18.7364 13.0116 18.9187 12.8814C19.1033 12.7488 19.2596 12.5866 19.3874 12.3949C19.5176 12.2008 19.6088 11.9782 19.6609 11.7273H20.5415C20.4753 12.099 20.3545 12.4316 20.1793 12.7251C20.0041 13.0187 19.7863 13.2685 19.5259 13.4744C19.2655 13.678 18.9731 13.8331 18.6488 13.9396C18.3268 14.0462 17.9824 14.0994 17.6154 14.0994C16.9951 14.0994 16.4435 13.9479 15.9606 13.6449C15.4776 13.3419 15.0977 12.911 14.8207 12.3523C14.5437 11.7936 14.4052 11.1307 14.4052 10.3636C14.4052 9.59659 14.5437 8.93371 14.8207 8.375C15.0977 7.81629 15.4776 7.38542 15.9606 7.08239C16.4435 6.77936 16.9951 6.62784 17.6154 6.62784C17.9824 6.62784 18.3268 6.68111 18.6488 6.78764C18.9731 6.89418 19.2655 7.05043 19.5259 7.25639C19.7863 7.45999 20.0041 7.70857 20.1793 8.00213C20.3545 8.29332 20.4753 8.62595 20.5415 9ZM24.0669 14.1136C23.5745 14.1136 23.1425 13.9964 22.7708 13.7621C22.4015 13.5277 22.1126 13.1998 21.9043 12.7784C21.6983 12.357 21.5953 11.8646 21.5953 11.3011C21.5953 10.733 21.6983 10.237 21.9043 9.81321C22.1126 9.38944 22.4015 9.06037 22.7708 8.82599C23.1425 8.59162 23.5745 8.47443 24.0669 8.47443C24.5594 8.47443 24.9902 8.59162 25.3596 8.82599C25.7312 9.06037 26.0201 9.38944 26.226 9.81321C26.4344 10.237 26.5385 10.733 26.5385 11.3011C26.5385 11.8646 26.4344 12.357 26.226 12.7784C26.0201 13.1998 25.7312 13.5277 25.3596 13.7621C24.9902 13.9964 24.5594 14.1136 24.0669 14.1136ZM24.0669 13.3608C24.441 13.3608 24.7488 13.2649 24.9902 13.0732C25.2317 12.8814 25.4105 12.6293 25.5265 12.3168C25.6425 12.0043 25.7005 11.6657 25.7005 11.3011C25.7005 10.9366 25.6425 10.5968 25.5265 10.282C25.4105 9.96709 25.2317 9.71259 24.9902 9.51847C24.7488 9.32434 24.441 9.22727 24.0669 9.22727C23.6929 9.22727 23.3851 9.32434 23.1436 9.51847C22.9022 9.71259 22.7234 9.96709 22.6074 10.282C22.4914 10.5968 22.4334 10.9366 22.4334 11.3011C22.4334 11.6657 22.4914 12.0043 22.6074 12.3168C22.7234 12.6293 22.9022 12.8814 23.1436 13.0732C23.3851 13.2649 23.6929 13.3608 24.0669 13.3608ZM28.2182 8.54545L29.525 10.7756L30.8319 8.54545H31.7978L30.0364 11.2727L31.7978 14H30.8319L29.525 11.8835L28.2182 14H27.2523L28.9853 11.2727L27.2523 8.54545H28.2182ZM32.9936 16.0455V8.54545H33.8033V9.41193H33.9027C33.9643 9.31723 34.0495 9.1965 34.1584 9.04972C34.2696 8.90057 34.4283 8.76799 34.6342 8.65199C34.8426 8.53362 35.1243 8.47443 35.4794 8.47443C35.9387 8.47443 36.3435 8.58925 36.6939 8.81889C37.0443 9.04853 37.3177 9.37405 37.5142 9.79545C37.7107 10.2169 37.8089 10.714 37.8089 11.2869C37.8089 11.8646 37.7107 12.3653 37.5142 12.7891C37.3177 13.2105 37.0455 13.5372 36.6974 13.7692C36.3494 13.9988 35.9482 14.1136 35.4936 14.1136C35.1432 14.1136 34.8627 14.0556 34.652 13.9396C34.4413 13.8213 34.2791 13.6875 34.1655 13.5384C34.0518 13.3868 33.9643 13.2614 33.9027 13.1619H33.8317V16.0455H32.9936ZM33.8175 11.2727C33.8175 11.6847 33.8778 12.0481 33.9986 12.3629C34.1193 12.6754 34.2957 12.9205 34.5277 13.098C34.7597 13.2732 35.0438 13.3608 35.38 13.3608C35.7304 13.3608 36.0227 13.2685 36.2571 13.0838C36.4938 12.8968 36.6714 12.6458 36.7898 12.331C36.9105 12.0137 36.9709 11.661 36.9709 11.2727C36.9709 10.8892 36.9117 10.5436 36.7933 10.2358C36.6773 9.92566 36.5009 9.68063 36.2642 9.50071C36.0298 9.31842 35.7351 9.22727 35.38 9.22727C35.0391 9.22727 34.7526 9.31368 34.5206 9.48651C34.2886 9.65696 34.1134 9.89607 33.995 10.2038C33.8767 10.5092 33.8175 10.8655 33.8175 11.2727ZM40.6925 14.1278C40.3468 14.1278 40.0331 14.0627 39.7514 13.9325C39.4697 13.8 39.246 13.6094 39.0803 13.3608C38.9145 13.1098 38.8317 12.8068 38.8317 12.4517C38.8317 12.1392 38.8932 11.8859 39.0163 11.6918C39.1394 11.4953 39.304 11.3414 39.5099 11.2301C39.7159 11.1188 39.9432 11.036 40.1918 10.9815C40.4427 10.9247 40.6948 10.8797 40.9482 10.8466C41.2796 10.804 41.5483 10.772 41.7543 10.7507C41.9626 10.727 42.1141 10.688 42.2088 10.6335C42.3059 10.5791 42.3544 10.4844 42.3544 10.3494V10.321C42.3544 9.97064 42.2585 9.69839 42.0668 9.50426C41.8774 9.31013 41.5897 9.21307 41.2038 9.21307C40.8037 9.21307 40.4901 9.30066 40.2628 9.47585C40.0355 9.65104 39.8757 9.83807 39.7834 10.0369L38.9879 9.75284C39.13 9.4214 39.3194 9.16335 39.5561 8.97869C39.7952 8.79167 40.0556 8.66146 40.3374 8.58807C40.6214 8.51231 40.9008 8.47443 41.1754 8.47443C41.3506 8.47443 41.5518 8.49574 41.7791 8.53835C42.0088 8.5786 42.2301 8.66264 42.4432 8.79048C42.6586 8.91832 42.8374 9.11127 42.9794 9.36932C43.1214 9.62737 43.1925 9.97301 43.1925 10.4062V14H42.3544V13.2614H42.3118C42.255 13.3797 42.1603 13.5064 42.0277 13.6413C41.8951 13.7763 41.7188 13.8911 41.4986 13.9858C41.2784 14.0805 41.0097 14.1278 40.6925 14.1278ZM40.8203 13.375C41.1518 13.375 41.4311 13.3099 41.6584 13.1797C41.888 13.0495 42.0608 12.8814 42.1768 12.6754C42.2952 12.4695 42.3544 12.2528 42.3544 12.0256V11.2585C42.3189 11.3011 42.2408 11.3402 42.12 11.3757C42.0017 11.4089 41.8643 11.4384 41.7081 11.4645C41.5542 11.4882 41.4039 11.5095 41.2571 11.5284C41.1127 11.545 40.9955 11.5592 40.9055 11.571C40.6877 11.5994 40.4841 11.6456 40.2947 11.7095C40.1077 11.7711 39.9562 11.8646 39.8402 11.9901C39.7266 12.1132 39.6697 12.2812 39.6697 12.4943C39.6697 12.7855 39.7775 13.0057 39.9929 13.1548C40.2107 13.3016 40.4865 13.375 40.8203 13.375ZM48.3727 10.8892V11.6705H45.3613V10.8892H48.3727ZM45.5602 8.54545V14H44.7221V8.54545H45.5602ZM49.0119 8.54545V14H48.1738V8.54545H49.0119ZM51.3805 12.7642L54.0083 8.54545H54.9743V14H54.1362V9.78125L51.5225 14H50.5424V8.54545H51.3805V12.7642ZM55.767 9.3267V8.54545H60.1989V9.3267H58.4091V14H57.571V9.3267H55.767ZM62.1458 10.5199H63.7083C64.3475 10.5199 64.8364 10.6821 65.1749 11.0064C65.5134 11.3307 65.6827 11.7415 65.6827 12.2386C65.6827 12.5653 65.6069 12.8625 65.4554 13.13C65.3039 13.3951 65.0814 13.607 64.7878 13.7656C64.4943 13.9219 64.1344 14 63.7083 14H61.4213V8.54545H62.2594V13.2188H63.7083C64.0397 13.2188 64.312 13.1312 64.525 12.956C64.7381 12.7808 64.8446 12.5559 64.8446 12.2812C64.8446 11.9924 64.7381 11.7569 64.525 11.5746C64.312 11.3923 64.0397 11.3011 63.7083 11.3011H62.1458V10.5199Z" fill="black"/>
</g>
<defs>
<filter id="filter0_d_35061_94872" x="0" y="0" width="80" height="29" filterUnits="userSpaceOnUse" color-interpolation-filters="sRGB">
<feFlood flood-opacity="0" result="BackgroundImageFix"/>
<feColorMatrix in="SourceAlpha" type="matrix" values="0 0 0 0 0 0 0 0 0 0 0 0 0 0 0 0 0 0 127 0" result="hardAlpha"/>
<feOffset dy="4"/>
<feGaussianBlur stdDeviation="2"/>
<feComposite in2="hardAlpha" operator="out"/>
<feColorMatrix type="matrix" values="0 0 0 0 0 0 0 0 0 0 0 0 0 0 0 0 0 0 0.25 0"/>
<feBlend mode="normal" in2="BackgroundImageFix" result="effect1_dropShadow_35061_94872"/>
<feBlend mode="normal" in="SourceGraphic" in2="effect1_dropShadow_35061_94872" result="shape"/>
</filter>
</defs>
</svg>
